<?xml version="1.0" encoding="UTF-8" standalone="no"?>
<svg
   width="900px"
   height="900px"
   viewBox="0 0 900 900"
   version="1.1"
   xml:space="preserve"
   id="SVGRoot"
   inkscape:export-filename="scatter.png"
   inkscape:export-xdpi="96"
   inkscape:export-ydpi="96"
   inkscape:version="1.3.2 (091e20e, 2023-11-25, custom)"
   sodipodi:docname="scatter.svg"
   xmlns:inkscape="http://www.inkscape.org/namespaces/inkscape"
   xmlns:sodipodi="http://sodipodi.sourceforge.net/DTD/sodipodi-0.dtd"
   xmlns:xlink="http://www.w3.org/1999/xlink"
   xmlns="http://www.w3.org/2000/svg"
   xmlns:svg="http://www.w3.org/2000/svg"><defs
   id="defs48"><linearGradient
     id="linearGradient54"
     inkscape:collect="always"><stop
       style="stop-color:#615f00;stop-opacity:1;"
       offset="0"
       id="stop54" /><stop
       style="stop-color:#f6ff50;stop-opacity:1;"
       offset="1"
       id="stop55" /></linearGradient><linearGradient
     id="linearGradient52"
     inkscape:collect="always"><stop
       style="stop-color:#007021;stop-opacity:1;"
       offset="0"
       id="stop52" /><stop
       style="stop-color:#c3c3c3;stop-opacity:1;"
       offset="1"
       id="stop53" /></linearGradient><linearGradient
     inkscape:collect="always"
     xlink:href="#linearGradient52"
     id="linearGradient53"
     x1="450.5481"
     y1="323.38611"
     x2="720.21924"
     y2="323.38611"
     gradientUnits="userSpaceOnUse" /><linearGradient
     inkscape:collect="always"
     xlink:href="#linearGradient54"
     id="linearGradient55"
     x1="221.91837"
     y1="579.90259"
     x2="440.20095"
     y2="579.90259"
     gradientUnits="userSpaceOnUse" /></defs>
<sodipodi:namedview
   pagecolor="#a9a9a9"
   bordercolor="#292929"
   borderopacity="1"
   inkscape:showpageshadow="2"
   inkscape:pageopacity="0.0"
   inkscape:pagecheckerboard="0"
   inkscape:deskcolor="#232323"
   id="namedview1"
   inkscape:zoom="0.91222222"
   inkscape:cx="463.15469"
   inkscape:cy="402.86236"
   inkscape:window-width="1920"
   inkscape:window-height="1017"
   inkscape:window-x="-8"
   inkscape:window-y="-8"
   inkscape:window-maximized="1"
   inkscape:current-layer="layer3" />
<style
   type="text/css"
   id="style1">
g.prefab path {
  vector-effect:non-scaling-stroke;
  -inkscape-stroke:hairline;
  fill: none;
  fill-opacity: 1;
  stroke-opacity: 1;
  stroke: #00349c;
}
</style>
<g
   inkscape:label="Very Cross"
   style="display:none;fill:#ffffff;stroke:#000000;stroke-width:2"
   class="prefab"
   id="g48"
   sodipodi:insensitive="true">
  <path
   d="M 93.976188,89.009245 V 789.00924 H 152.30899 V 89.009245 Z m 116.665602,0 V 789.00924 h 58.33492 V 89.009245 Z m 116.66772,0 V 789.00924 h 58.3328 V 89.009245 Z m 116.66561,0 V 789.00924 h 58.33494 V 89.009245 Z m 116.66774,0 V 789.00924 h 58.33281 V 89.009245 Z m 116.66561,0 V 789.00924 h 58.33491 V 89.009245 Z m 116.66772,0 V 789.00924 H 93.976188 V 89.009245 Z"
   id="path1" />
  <path
   d="M 793.97619,89.009245 H 93.976189 V 147.34206 H 793.97619 Z m 0,116.665615 H 93.976189 v 58.33491 H 793.97619 Z m 0,116.66771 H 93.976189 V 380.6754 H 793.97619 Z m 0,116.66562 H 93.976189 v 58.33493 H 793.97619 Z m 0,116.66774 H 93.976189 v 58.3328 H 793.97619 Z m 0,116.66561 H 93.976189 v 58.33492 H 793.97619 Z m 0,116.66773 H 93.976189 l 4e-6,-700.000025 H 793.97619 Z"
   id="path2" />
  <path
   d="M 93.976191,89.009245 793.97619,789.00924 H 93.976191 Z"
   id="path3" />
  <path
   d="M 93.976189,147.34206 735.64338,789.00924 H 93.976191 Z"
   id="path4" />
  <path
   d="M 93.976189,205.67486 677.30846,789.00924 H 93.976191 Z"
   id="path5" />
  <path
   d="M 93.976189,264.00978 618.97567,789.00924 H 93.976191 Z"
   id="path6" />
  <path
   d="M 93.976189,322.34257 560.64285,789.00924 H 93.976191 Z"
   id="path7" />
  <path
   d="M 93.957507,381.89433 501.0911,789.02792 H 93.957509 Z"
   id="path8" />
  <path
   d="M 93.936656,439.73716 443.10179,789.04872 H 93.936658 Z"
   id="path9" />
  <path
   d="M 93.912198,498.22 384.76419,789.07323 H 93.912199 Z"
   id="path10" />
  <path
   d="M 93.88284,556.55881 326.42661,789.10259 H 93.882841 Z"
   id="path11" />
  <path
   d="M 93.845835,615.28352 267.62874,789.13954 H 93.845835 Z"
   id="path12" />
  <path
   d="M 93.796682,673.73335 209.25192,789.18874 H 93.796682 Z"
   id="path13" />
  <path
   d="m 93.714287,732.36135 56.981773,56.90166 H 93.714287 Z"
   id="path14" />
  <path
   d="M 793.42139,147.34206 151.7542,789.00924 h 641.66719 z"
   id="path15" />
  <path
   d="M 793.42139,205.67486 210.08912,789.00924 h 583.33227 z"
   id="path16" />
  <path
   d="M 793.42139,264.00978 268.42191,789.00924 h 524.99948 z"
   id="path17" />
  <path
   d="M 793.42139,322.34257 326.75473,789.00924 h 466.66666 z"
   id="path18" />
  <path
   d="M 793.44008,381.89433 386.30648,789.02792 H 793.44007 Z"
   id="path19" />
  <path
   d="M 793.46093,439.73716 444.29579,789.04872 h 349.16514 z"
   id="path20" />
  <path
   d="m 793.48539,498.22 -290.852,290.85323 h 290.85199 z"
   id="path21" />
  <path
   d="M 793.51474,556.55881 560.97097,789.10259 h 232.54377 z"
   id="path22" />
  <path
   d="M 793.55175,615.28352 619.76884,789.13954 h 173.78291 z"
   id="path23" />
  <path
   d="M 793.6009,673.73335 678.14566,789.18874 H 793.6009 Z"
   id="path24" />
  <path
   d="m 793.6833,732.36135 -56.98178,56.90166 h 56.98178 z"
   id="path25" />
  <path
   d="M 93.976191,789.55589 793.97619,89.555895 H 93.976191 Z"
   id="path26" />
  <path
   d="M 93.976189,731.22307 735.64338,89.555895 H 93.976191 Z"
   id="path27" />
  <path
   d="M 93.976189,672.89027 677.30846,89.555895 H 93.976191 Z"
   id="path28" />
  <path
   d="M 93.976189,614.55536 618.97567,89.555895 H 93.976191 Z"
   id="path29" />
  <path
   d="M 93.976189,556.22256 560.64285,89.555895 H 93.976191 Z"
   id="path30" />
  <path
   d="M 93.957507,496.67081 501.0911,89.537215 H 93.957509 Z"
   id="path31" />
  <path
   d="M 93.936656,438.82798 443.10179,89.516415 H 93.936658 Z"
   id="path32" />
  <path
   d="M 93.912198,380.34514 384.76419,89.491905 H 93.912199 Z"
   id="path33" />
  <path
   d="M 93.88284,322.00632 326.42661,89.462545 H 93.882841 Z"
   id="path34" />
  <path
   d="M 93.845835,263.28162 267.62874,89.425595 H 93.845835 Z"
   id="path35" />
  <path
   d="M 93.796682,204.83178 209.25192,89.376395 H 93.796682 Z"
   id="path36" />
  <path
   d="M 93.714287,146.20378 150.69606,89.302135 H 93.714287 Z"
   id="path37" />
  <path
   d="M 793.42139,731.22307 151.7542,89.555895 h 641.66719 z"
   id="path38" />
  <path
   d="M 793.42139,672.89027 210.08912,89.555895 h 583.33227 z"
   id="path39" />
  <path
   d="M 793.42139,614.55536 268.42191,89.555895 h 524.99948 z"
   id="path40" />
  <path
   d="M 793.42139,556.22256 326.75473,89.555895 h 466.66666 z"
   id="path41" />
  <path
   d="M 793.44008,496.67081 386.30648,89.537215 h 407.13359 z"
   id="path42" />
  <path
   d="M 793.46093,438.82798 444.29579,89.516415 h 349.16514 z"
   id="path43" />
  <path
   d="M 793.48539,380.34514 502.63339,89.491905 h 290.85199 z"
   id="path44" />
  <path
   d="M 793.51474,322.00632 560.97097,89.462545 h 232.54377 z"
   id="path45" />
  <path
   d="M 793.55175,263.28162 619.76884,89.425595 h 173.78291 z"
   id="path46" />
  <path
   d="M 793.6009,204.83178 678.14566,89.376395 H 793.6009 Z"
   id="path47" />
  <path
   d="M 793.6833,146.20378 736.70152,89.302135 h 56.98178 z"
   id="path48" />
</g>
<g
   inkscape:groupmode="layer"
   id="layer3"
   inkscape:label="Layer 1"><path
     style="fill:#004dc0;stroke:#00ff00;stroke-width:20;stroke-opacity:1"
     d="M 327.77101,497.68575 326.67479,146.89403"
     id="path49" /><path
     style="fill:#ff0000;stroke:#ff0000;stroke-width:20;fill-opacity:1;stroke-opacity:1"
     d="m 326.67479,497.68575 408.89159,-1.09623"
     id="path50" /><path
     style="fill:#004dc0;stroke:#0000ff;stroke-width:20;stroke-opacity:1"
     d="M 326.67479,499.8782 151.27893,730.08526"
     id="path51" /><circle
     style="fill:url(#linearGradient53);fill-opacity:1;stroke:#004b1c;stroke-width:10;stroke-opacity:1;stroke-dasharray:none"
     id="path52"
     cx="585.38367"
     cy="323.38611"
     r="134.83557" /><circle
     style="fill:url(#linearGradient55);fill-opacity:1;stroke:#636200;stroke-width:10;stroke-dasharray:none;stroke-opacity:1"
     id="path53"
     cx="331.05966"
     cy="579.90259"
     r="104.14129" /></g></svg>
